<svg width="0" height="0" class="hidden">
  <symbol xmlns="http://www.w3.org/2000/svg" viewBox="0 0 48 48" id="instagram">
    <path d="M 16.5 5 C 10.16639 5 5 10.16639 5 16.5 L 5 31.5 C 5 37.832757 10.166209 43 16.5 43 L 31.5 43 C 37.832938 43 43 37.832938 43 31.5 L 43 16.5 C 43 10.166209 37.832757 5 31.5 5 L 16.5 5 z M 16.5 8 L 31.5 8 C 36.211243 8 40 11.787791 40 16.5 L 40 31.5 C 40 36.211062 36.211062 40 31.5 40 L 16.5 40 C 11.787791 40 8 36.211243 8 31.5 L 8 16.5 C 8 11.78761 11.78761 8 16.5 8 z M 34 12 C 32.895 12 32 12.895 32 14 C 32 15.105 32.895 16 34 16 C 35.105 16 36 15.105 36 14 C 36 12.895 35.105 12 34 12 z M 24 14 C 18.495178 14 14 18.495178 14 24 C 14 29.504822 18.495178 34 24 34 C 29.504822 34 34 29.504822 34 24 C 34 18.495178 29.504822 14 24 14 z M 24 17 C 27.883178 17 31 20.116822 31 24 C 31 27.883178 27.883178 31 24 31 C 20.116822 31 17 27.883178 17 24 C 17 20.116822 20.116822 17 24 17 z"></path>
  </symbol>
  <symbol version="1.1" id="mountain2" xmlns="http://www.w3.org/2000/svg" xmlns:xlink="http://www.w3.org/1999/xlink" xml:space="preserve" viewBox="0 0 512 512">
    <g>
      <g>
        <path d="M439.088,434.899c2.925-2.993,5.777-6.057,8.554-9.19c0.297-0.335,0.596-0.668,0.891-1.004
			c0.854-0.974,1.699-1.957,2.539-2.945c0.291-0.342,0.581-0.685,0.87-1.029c0.883-1.049,1.759-2.102,2.625-3.165
			c0.094-0.116,0.187-0.234,0.282-0.35C490.577,373.201,512,317.106,512,256C512,114.618,397.382,0,256,0S0,114.618,0,256
			c0,139.82,112.103,253.447,251.328,255.941c1.382,0.031,2.746,0.048,4.102,0.052c0.191,0,0.38,0.007,0.57,0.007
			c0.518,0,1.033-0.017,1.55-0.02c1.392-0.008,2.784-0.022,4.171-0.053c0.917-0.02,1.831-0.052,2.745-0.082
			c1.026-0.034,2.051-0.071,3.074-0.117c1.012-0.045,2.024-0.094,3.033-0.151c0.856-0.048,1.71-0.106,2.564-0.162
			c4.349-0.288,8.668-0.683,12.955-1.185c0.198-0.023,0.397-0.044,0.596-0.068c1.582-0.189,3.159-0.395,4.732-0.613
			c0.09-0.012,0.179-0.025,0.269-0.038c53.418-7.453,101.551-31.384,139.105-66.5c0.233-0.218,0.468-0.433,0.7-0.651
			c0.936-0.882,1.862-1.772,2.785-2.668c0.379-0.367,0.756-0.736,1.133-1.106c0.886-0.871,1.768-1.745,2.642-2.629
			C438.401,435.607,438.743,435.251,439.088,434.899z M256,42.667c117.818,0,213.333,95.515,213.333,213.333
			c0,7.661-0.413,15.224-1.2,22.676l-48.598-74.756c-8.633-13.28-28.216-12.853-36.262,0.791l-33.251,56.384l-75.088-144.413
			c-5.316-10.223-16.938-13.681-26.446-10.15c-4.324,1.602-8.213,4.648-10.874,9.161l-50.88,86.272
			c-0.078,0.133-0.147,0.27-0.223,0.405l-2.794,4.738l-23.108-35.551c-8.632-13.28-28.215-12.854-36.262,0.788L47.714,302.268
			c-3.295-14.899-5.047-30.378-5.047-46.268C42.667,138.182,138.182,42.667,256,42.667z M425.15,385.988
			c-2.092,2.721-4.25,5.386-6.466,7.996c-0.148,0.175-0.295,0.351-0.444,0.525c-0.663,0.776-1.332,1.545-2.005,2.311
			c-0.246,0.28-0.494,0.557-0.742,0.836c-1.412,1.589-2.844,3.16-4.302,4.705c-0.021,0.022-0.042,0.045-0.063,0.067
			c-0.677,0.717-1.361,1.425-2.047,2.132c-0.293,0.302-0.587,0.603-0.882,0.904c-2.259,2.299-4.567,4.547-6.925,6.739
			c-0.182,0.169-0.363,0.339-0.545,0.507c-0.816,0.753-1.636,1.502-2.464,2.242c-0.015,0.013-0.03,0.026-0.045,0.04
			c-32.074,28.692-72.669,47.582-116.922,52.84c-0.233,0.027-0.466,0.053-0.699,0.08c-1.071,0.124-2.143,0.243-3.218,0.351
			l89.842-152.343c0.008-0.013,0.014-0.027,0.022-0.04l35.286-59.834l51.517,79.245c-7.348,18.358-17.107,35.347-28.847,50.629
			C425.184,385.943,425.167,385.966,425.15,385.988z M280.538,219.968c-4.189,1.654-7.862,4.625-10.334,8.654l-3.219-6.438
			c-6.512-13.024-23.87-15.841-34.166-5.544l-1.998,1.998l-1.84-4.292l25.843-43.821L280.538,219.968z M202.1,259.931l1.919,4.476
			c5.946,13.871,24.021,17.352,34.693,6.68l3.348-3.348L253.1,289.82c8.232,16.463,32.05,15.474,38.888-1.616l7.578-18.94
			l8.939,4.472l15.96,30.695L228.311,467.48c-43.87-5.695-84.378-24.805-116.546-54.372l72.225-122.471L202.1,259.931z
			 M147.31,268.841L82.075,379.453c-5.721-8.049-10.884-16.494-15.445-25.274l76.972-130.498l15.908,24.473L147.31,268.841z"></path>
      </g>
    </g>
  </symbol>
  <symbol xmlns="http://www.w3.org/2000/svg" viewBox="0 0 48 48" id="youtube">
    <path d="M 23.857422 8.5 C 17.504717 8.5 11.602344 8.9526234 8.234375 9.65625 A 1.50015 1.50015 0 0 0 8.2128906 9.6621094 C 5.6754768 10.230693 3.2861897 12.048234 2.7832031 14.894531 A 1.50015 1.50015 0 0 0 2.78125 14.90625 C 2.394836 17.200265 2 20.190694 2 24.5 C 2 28.801151 2.3961903 31.712324 2.8847656 34.126953 C 3.4000756 36.889296 5.7342165 38.761817 8.3105469 39.337891 A 1.50015 1.50015 0 0 0 8.3476562 39.347656 C 11.86271 40.040284 17.598467 40.5 23.951172 40.5 C 30.303877 40.5 36.042686 40.04028 39.558594 39.347656 A 1.50015 1.50015 0 0 0 39.595703 39.337891 C 42.133117 38.769306 44.522404 36.951766 45.025391 34.105469 A 1.50015 1.50015 0 0 0 45.029297 34.083984 C 45.409789 31.743169 45.902812 28.755621 46 24.439453 A 1.50015 1.50015 0 0 0 46 24.40625 C 46 20.087697 45.50571 17.078675 45.023438 14.695312 C 44.512192 11.927074 42.175378 10.049478 39.595703 9.4726562 A 1.50015 1.50015 0 0 0 39.476562 9.4511719 C 36.0464 8.9689502 30.211115 8.5 23.857422 8.5 z M 23.857422 11.5 C 30.017774 11.5 35.726167 11.961361 38.966797 12.412109 C 40.559483 12.778239 41.824973 13.890643 42.074219 15.240234 A 1.50015 1.50015 0 0 0 42.078125 15.265625 C 42.543492 17.56209 42.996187 20.292628 42.998047 24.384766 C 42.904597 28.49001 42.450899 31.244675 42.070312 33.585938 C 41.810413 35.044446 40.592 36.034419 38.953125 36.40625 C 35.805209 37.023818 30.142051 37.5 23.951172 37.5 C 17.759247 37.5 12.097629 37.021978 8.9511719 36.404297 C 7.3525116 36.041193 6.081938 34.925434 5.8320312 33.572266 A 1.50015 1.50015 0 0 0 5.8261719 33.546875 C 5.3660305 31.276194 5 28.628694 5 24.5 C 5 20.378688 5.3654221 17.62199 5.7363281 15.417969 C 5.9947549 13.955585 7.2164425 12.963194 8.859375 12.591797 C 11.774266 11.984227 17.659955 11.5 23.857422 11.5 z M 20.460938 16.023438 C 18.668395 16.081606 17 17.525347 17 19.486328 L 17 28.515625 C 17 31.130266 19.966455 32.825862 22.238281 31.542969 A 1.50015 1.50015 0 0 0 22.238281 31.541016 L 30.228516 27.027344 C 32.516764 25.734577 32.516764 22.265423 30.228516 20.972656 L 22.238281 16.458984 C 21.670325 16.138261 21.058451 16.004047 20.460938 16.023438 z M 20.472656 18.980469 C 20.562791 18.985356 20.661175 19.013538 20.761719 19.070312 L 28.751953 23.585938 C 29.157705 23.815171 29.157705 24.186783 28.751953 24.416016 L 20.761719 28.929688 C 20.359545 29.156793 20 28.944984 20 28.515625 L 20 19.486328 C 20 19.271649 20.09013 19.111638 20.230469 19.033203 C 20.300636 18.993988 20.382521 18.975581 20.472656 18.980469 z"></path>
  </symbol>
  <symbol xmlns="http://www.w3.org/2000/svg" viewBox="0 0 48 48" id="facebook">
    <path d="M 24 4 C 12.972066 4 4 12.972074 4 24 C 4 35.027926 12.972066 44 24 44 C 35.027934 44 44 35.027926 44 24 C 44 12.972074 35.027934 4 24 4 z M 24 7 C 33.406615 7 41 14.593391 41 24 C 41 32.380773 34.967178 39.306373 27 40.720703 L 27 29 L 30.625 29 C 31.129 29 31.555188 28.623047 31.617188 28.123047 L 31.992188 25.123047 C 32.028188 24.839047 31.938047 24.553891 31.748047 24.337891 C 31.559047 24.122891 31.287 24 31 24 L 27 24 L 27 20.5 C 27 19.397 27.897 18.5 29 18.5 L 31 18.5 C 31.552 18.5 32 18.053 32 17.5 L 32 14.125 C 32 13.607 31.604844 13.174906 31.089844 13.128906 C 31.030844 13.123906 29.619984 13 27.833984 13 C 23.426984 13 21 15.616187 21 20.367188 L 21 24 L 17 24 C 16.448 24 16 24.447 16 25 L 16 28 C 16 28.553 16.448 29 17 29 L 21 29 L 21 40.720703 C 13.032822 39.306373 7 32.380773 7 24 C 7 14.593391 14.593385 7 24 7 z"></path>
  </symbol>
</svg>